<svg xmlns="http://www.w3.org/2000/svg" xmlns:xlink="http://www.w3.org/1999/xlink" width="167" height="38.224" viewBox="0 0 167 38.224">
  <defs>
    <clipPath id="clip-path">
      <rect id="Rectangle_70" data-name="Rectangle 70" width="167" height="38.223" fill="none"/>
    </clipPath>
  </defs>
  <g id="Group_112" data-name="Group 112" transform="translate(-132 -13113.122)">
    <g id="Group_83" data-name="Group 83" transform="translate(132 13113.122)">
      <path id="Path_30" data-name="Path 30" d="M38.185,10.154H49.624v3H41.489v3.2h7.169v3H41.489v5.816h-3.3Z" transform="translate(5.342 1.421)" fill="#fff"/>
      <path id="Path_31" data-name="Path 31" d="M54.1,10.06h3.048l6.438,15.13H60.133L58.76,21.82H52.408l-1.375,3.37H47.665ZM57.58,18.9l-2-4.872-2,4.872Z" transform="translate(6.668 1.407)" fill="#fff"/>
      <path id="Path_32" data-name="Path 32" d="M62.959,10.154h3.048l7.039,9.25v-9.25h3.261V25.177H73.5l-7.275-9.55v9.55H62.959Z" transform="translate(8.808 1.421)" fill="#fff"/>
      <g id="Group_82" data-name="Group 82" transform="translate(0 0)">
        <g id="Group_81" data-name="Group 81" clip-path="url(#clip-path)">
          <path id="Path_33" data-name="Path 33" d="M76.712,23.014l1.953-2.339A6.892,6.892,0,0,0,83.15,22.5c1.352,0,2.167-.537,2.167-1.416V21.04c0-.837-.514-1.266-3.025-1.91-3.026-.772-4.979-1.61-4.979-4.593v-.042c0-2.726,2.189-4.529,5.258-4.529a8.7,8.7,0,0,1,5.58,1.91l-1.717,2.49a7.048,7.048,0,0,0-3.906-1.481c-1.266,0-1.931.579-1.931,1.309v.043c0,.987.643,1.309,3.241,1.974C86.884,17,88.6,18.1,88.6,20.718v.043c0,2.983-2.275,4.658-5.515,4.658a9.562,9.562,0,0,1-6.374-2.4" transform="translate(10.732 1.394)" fill="#fff"/>
          <path id="Path_34" data-name="Path 34" d="M89.449,10.154h3.3V16.1h6.1V10.154h3.306V25.177H98.849v-6.03h-6.1v6.03h-3.3Z" transform="translate(12.514 1.421)" fill="#fff"/>
          <path id="Path_35" data-name="Path 35" d="M108.6,10.06h3.048l6.438,15.13h-3.456l-1.374-3.37H106.9l-1.374,3.37h-3.37Zm3.477,8.842-2-4.872-2,4.872Z" transform="translate(14.292 1.407)" fill="#fff"/>
          <path id="Path_36" data-name="Path 36" d="M114.8,10.16h3.542l3.112,10.172,3.368-10.216h2.833l3.37,10.216,3.112-10.172h3.456l-5.13,15.13h-2.876l-3.391-9.829L122.8,25.29h-2.876Z" transform="translate(16.06 1.415)" fill="#fff"/>
          <path id="Path_37" data-name="Path 37" d="M136.469,10.154H147.8v2.94h-8.049v3.048h7.082v2.94h-7.082v3.155h8.156v2.94H136.469Z" transform="translate(19.092 1.421)" fill="#fff"/>
          <path id="Path_38" data-name="Path 38" d="M6.127,10.554,13.085,17.5a.411.411,0,0,0,.278.111.446.446,0,0,0,.32-.155l4.541-4.54L25.32,5.83l.015-.015a1.086,1.086,0,0,0,.407-.761V.185A.179.179,0,0,0,25.561,0a.194.194,0,0,0-.138.063l-7.2,7.213L11.031.065a.181.181,0,0,0-.179-.052.184.184,0,0,0-.137.164l0,4.808a.952.952,0,0,0,.31.7l0,0,4.4,4.4h0l-2.059,2.058L6.132,4.91a.18.18,0,0,0-.171-.052.186.186,0,0,0-.139.156l.01,4.79a.988.988,0,0,0,.3.75" transform="translate(0.815 0.001)" fill="#fff"/>
          <path id="Path_39" data-name="Path 39" d="M17.614,22.562a.446.446,0,0,0-.155-.32L12.919,17.7l-7.09-7.095-.015-.015a1.084,1.084,0,0,0-.761-.406H.184a.178.178,0,0,0-.18.181.194.194,0,0,0,.063.137L7.28,17.7l-7.216,7.2a.182.182,0,0,0-.052.179.187.187,0,0,0,.164.138H4.984a.952.952,0,0,0,.7-.31l0,0,4.4-4.4h0l2.058,2.06-7.234,7.23a.18.18,0,0,0-.052.171.186.186,0,0,0,.156.139l4.79-.01a.988.988,0,0,0,.75-.3L17.5,22.84a.411.411,0,0,0,.111-.278" transform="translate(0.001 1.425)" fill="#fff"/>
          <path id="Path_40" data-name="Path 40" d="M29.775,25.14l-6.958-6.951a.411.411,0,0,0-.278-.111.446.446,0,0,0-.32.155l-4.541,4.54-7.095,7.09-.015.015a1.086,1.086,0,0,0-.407.761v4.869a.179.179,0,0,0,.181.18.194.194,0,0,0,.138-.063l7.2-7.213,7.2,7.216a.181.181,0,0,0,.179.052.184.184,0,0,0,.137-.164l0-4.808a.952.952,0,0,0-.31-.7l0,0-4.4-4.4h0l2.059-2.058,7.232,7.234a.18.18,0,0,0,.171.052.186.186,0,0,0,.139-.156l-.01-4.79a.992.992,0,0,0-.3-.75" transform="translate(1.422 2.529)" fill="#fff"/>
          <path id="Path_41" data-name="Path 41" d="M35.634,25.471l-7.213-7.2,7.216-7.2a.182.182,0,0,0,.052-.178.185.185,0,0,0-.164-.138H30.716a.955.955,0,0,0-.7.31h0l-4.4,4.4h0l-2.056-2.06,7.233-7.23a.182.182,0,0,0,.054-.171.188.188,0,0,0-.157-.14L25.9,5.88a.992.992,0,0,0-.75.3L18.2,13.133a.413.413,0,0,0-.111.278.443.443,0,0,0,.155.32l4.539,4.541,7.09,7.095.015.015a1.084,1.084,0,0,0,.763.407h4.869a.179.179,0,0,0,.18-.181.2.2,0,0,0-.063-.138" transform="translate(2.53 0.821)" fill="#fff"/>
        </g>
      </g>
    </g>
  </g>
</svg>
