<svg xmlns="http://www.w3.org/2000/svg" width="19.227" height="19.227" viewBox="0 0 19.227 19.227">
  <path id="Icon_corebrands-instagram" data-name="Icon corebrands-instagram" d="M9.616,0C7,0,6.677.013,5.654.056A7.138,7.138,0,0,0,3.319.5a4.716,4.716,0,0,0-1.7,1.111,4.661,4.661,0,0,0-1.111,1.7A7.138,7.138,0,0,0,.058,5.652C.012,6.675,0,7,0,9.614s.013,2.939.056,3.962A7.155,7.155,0,0,0,.506,15.91a4.715,4.715,0,0,0,1.111,1.7,4.661,4.661,0,0,0,1.7,1.111,7.235,7.235,0,0,0,2.335.448c1.023.046,1.348.056,3.962.056s2.939-.013,3.962-.056a7.251,7.251,0,0,0,2.335-.448,4.715,4.715,0,0,0,1.7-1.111,4.637,4.637,0,0,0,1.111-1.7,7.235,7.235,0,0,0,.448-2.335c.046-1.023.056-1.348.056-3.962s-.013-2.939-.056-3.962a7.231,7.231,0,0,0-.448-2.335,4.715,4.715,0,0,0-1.111-1.7A4.637,4.637,0,0,0,15.912.5,7.155,7.155,0,0,0,13.578.056C12.554.01,12.229,0,9.616,0Zm0,1.731c2.567,0,2.873.013,3.887.056a5.32,5.32,0,0,1,1.784.332,3,3,0,0,1,1.108.719,2.963,2.963,0,0,1,.716,1.105,5.32,5.32,0,0,1,.332,1.784c.043,1.014.056,1.321.056,3.887s-.013,2.873-.059,3.887a5.47,5.47,0,0,1-.338,1.784,3.126,3.126,0,0,1-.721,1.108,3.033,3.033,0,0,1-1.108.716,5.324,5.324,0,0,1-1.79.332c-1.02.043-1.32.056-3.893.056s-2.873-.013-3.894-.059a5.522,5.522,0,0,1-1.79-.338A3.016,3.016,0,0,1,2.8,16.379a2.887,2.887,0,0,1-.719-1.108,5.375,5.375,0,0,1-.338-1.79c-.034-1.008-.05-1.32-.05-3.881s.016-2.873.05-3.893a5.383,5.383,0,0,1,.338-1.79A2.824,2.824,0,0,1,2.8,2.808a2.867,2.867,0,0,1,1.105-.721,5.358,5.358,0,0,1,1.781-.335c1.02-.037,1.32-.05,3.89-.05Zm0,2.949a4.935,4.935,0,1,0,4.935,4.935A4.934,4.934,0,0,0,9.616,4.679Zm0,8.14a3.2,3.2,0,1,1,3.2-3.2A3.2,3.2,0,0,1,9.616,12.82ZM15.9,4.482A1.154,1.154,0,1,1,14.748,3.33,1.156,1.156,0,0,1,15.9,4.482Z" transform="translate(-0.002)" fill="#fff"/>
</svg>
